<svg width="1200" height="480" viewBox="0 0 1200 480" fill="none" xmlns="http://www.w3.org/2000/svg">
<defs>
  <linearGradient id="bg" x1="0" y1="0" x2="1200" y2="480" gradientUnits="userSpaceOnUse"><stop stop-color="#06090E"/><stop offset=".55" stop-color="#090D14"/><stop offset="1" stop-color="#070B11"/></linearGradient>
  <radialGradient id="core"><stop stop-color="#58A6FF" stop-opacity=".18"/><stop offset=".48" stop-color="#A371F7" stop-opacity=".06"/><stop offset="1" stop-color="#06090E" stop-opacity="0"/></radialGradient>
  <filter id="glow" x="-100%" y="-100%" width="300%" height="300%"><feGaussianBlur stdDeviation="4" result="b"/><feMerge><feMergeNode in="b"/><feMergeNode in="SourceGraphic"/></feMerge></filter>
  <pattern id="grid" width="46" height="46" patternUnits="userSpaceOnUse"><path d="M46 0H0V46" stroke="#30363D" stroke-opacity=".09"/></pattern>
  <style>.o1{transform-origin:600px 255px;animation:spin 24s linear infinite}.o2{transform-origin:600px 255px;animation:spin2 34s linear infinite}.pulse{animation:pulse 2.5s ease-in-out infinite}.signal{stroke-dasharray:35 260;animation:signal 4.8s linear infinite}@keyframes spin{to{transform:rotate(360deg)}}@keyframes spin2{to{transform:rotate(-360deg)}}@keyframes pulse{0%,100%{opacity:.28}50%{opacity:1}}@keyframes signal{to{stroke-dashoffset:-295}}@media(prefers-reduced-motion:reduce){.o1,.o2,.pulse,.signal{animation:none}}</style>
</defs>
<rect width="1200" height="480" rx="22" fill="url(#bg)"/><rect width="1200" height="480" rx="22" fill="url(#grid)"/><rect x=".5" y=".5" width="1199" height="479" rx="21.5" stroke="#30363D"/>
<text x="44" y="41" fill="#66707D" font-family="ui-monospace,SFMono-Regular,Menlo,Consolas,monospace" font-size="10" letter-spacing="1.8">BUILD ORBIT // THE DAILY PRACTICE</text><text x="1156" y="41" text-anchor="end" fill="#49515C" font-family="ui-monospace,SFMono-Regular,Menlo,Consolas,monospace" font-size="9" letter-spacing="1.3">CURIOSITY / UNBOUNDED</text><path d="M44 58H1156" stroke="#21262D"/>
<text x="44" y="103" fill="#F0F6FC" font-family="Inter,Arial,sans-serif" font-size="30" font-weight="800">Career has a vector. Curiosity has range.</text>
<text x="44" y="131" fill="#66707D" font-family="ui-monospace,SFMono-Regular,Menlo,Consolas,monospace" font-size="11">Products, tools, experiments, learning systems — anything worth understanding may become a build.</text>

<circle cx="600" cy="272" r="240" fill="url(#core)"/>
<ellipse cx="600" cy="272" rx="275" ry="112" stroke="#21262D" transform="rotate(-8 600 272)"/>
<ellipse cx="600" cy="272" rx="224" ry="161" stroke="#30363D" stroke-opacity=".7" transform="rotate(15 600 272)"/>
<ellipse cx="600" cy="272" rx="150" ry="205" stroke="#21262D" stroke-dasharray="3 13" transform="rotate(55 600 272)"/>
<g class="o1"><circle cx="332" cy="314" r="4" fill="#58A6FF" filter="url(#glow)"/><circle cx="868" cy="230" r="3" fill="#A371F7"/></g>
<g class="o2"><circle cx="512" cy="87" r="3.5" fill="#39D98A" filter="url(#glow)"/><circle cx="689" cy="457" r="3" fill="#D29922"/></g>

<g stroke="#30363D" stroke-width="1.2"><path d="M600 272L251 213"/><path d="M600 272L964 203"/><path d="M600 272L917 350"/><path d="M600 272L286 373"/><path d="M600 272L590 168"/></g>
<g stroke-width="1.8" fill="none" filter="url(#glow)"><path class="signal" d="M600 272L251 213" stroke="#58A6FF"/><path class="signal" d="M600 272L964 203" stroke="#A371F7"/><path class="signal" d="M600 272L917 350" stroke="#39D98A"/></g>

<circle cx="600" cy="272" r="54" fill="#0B1017" stroke="#DCE5EF"/><circle cx="600" cy="272" r="42" stroke="#30363D" stroke-dasharray="3 8"/><circle class="pulse" cx="600" cy="272" r="8" fill="#F0F6FC" filter="url(#glow)"/>
<text x="600" y="258" text-anchor="middle" fill="#66707D" font-family="ui-monospace,SFMono-Regular,Menlo,Consolas,monospace" font-size="9" letter-spacing="1.4">IMPULSE</text><text x="600" y="292" text-anchor="middle" fill="#F0F6FC" font-family="Inter,Arial,sans-serif" font-size="20" font-weight="900">BUILD</text>

<g font-family="ui-monospace,SFMono-Regular,Menlo,Consolas,monospace">
  <circle cx="251" cy="213" r="8" fill="#0D1117" stroke="#58A6FF"/><circle cx="251" cy="213" r="3" fill="#58A6FF"/><text x="92" y="198" fill="#58A6FF" font-size="16" font-weight="700">ZEROUPLOAD</text><text x="92" y="220" fill="#66707D" font-size="9">browser-local file work</text>
  <circle cx="964" cy="203" r="8" fill="#0D1117" stroke="#A371F7"/><circle cx="964" cy="203" r="3" fill="#A371F7"/><text x="982" y="194" fill="#A371F7" font-size="16" font-weight="700">COPYKIT</text><text x="982" y="216" fill="#66707D" font-size="9">curated interface library</text>
  <circle cx="917" cy="350" r="8" fill="#0D1117" stroke="#39D98A"/><circle cx="917" cy="350" r="3" fill="#39D98A"/><text x="937" y="343" fill="#39D98A" font-size="15" font-weight="700">SPONSORSNIPER</text><text x="937" y="365" fill="#66707D" font-size="9">local sponsor intelligence</text>
  <circle cx="286" cy="373" r="8" fill="#0D1117" stroke="#D29922"/><circle cx="286" cy="373" r="3" fill="#D29922"/><text x="96" y="366" fill="#D29922" font-size="15" font-weight="700">GIT / GITHUB ACADEMY</text><text x="96" y="388" fill="#66707D" font-size="9">break · inspect · recover</text>
  <circle cx="590" cy="168" r="8" fill="#0D1117" stroke="#DCE5EF"/><circle cx="590" cy="168" r="3" fill="#DCE5EF"/><text x="612" y="160" fill="#DCE5EF" font-size="15" font-weight="700">MASTER 2.0</text><text x="612" y="181" fill="#66707D" font-size="9">living digital identity</text>
</g>
<circle class="pulse" cx="421" cy="175" r="2.5" fill="#66707D"/><circle class="pulse" cx="777" cy="147" r="2" fill="#66707D"/><circle class="pulse" cx="770" cy="402" r="2.5" fill="#66707D"/><circle class="pulse" cx="438" cy="417" r="2" fill="#66707D"/>
<path d="M44 445H1156" stroke="#21262D"/><text x="44" y="467" fill="#49515C" font-family="ui-monospace,SFMono-Regular,Menlo,Consolas,monospace" font-size="9" letter-spacing="1.35">NOT EVERY BUILD IS THE DESTINATION. EVERY BUILD TRAINS THE BUILDER.</text>
</svg>
